<?xml version="1.0" encoding="utf-8"?>
<!-- Generator: Adobe Illustrator 27.5.0, SVG Export Plug-In . SVG Version: 6.00 Build 0)  -->
<svg version="1.1" xmlns="http://www.w3.org/2000/svg" xmlns:xlink="http://www.w3.org/1999/xlink" x="0px" y="0px"
	 viewBox="0 0 750 500" style="enable-background:new 0 0 750 500;" xml:space="preserve">
<g id="Background_Simple">
	<g>
		<path style="fill:#92E3A9;" d="M690.148,189.66C652.461,130.466,583.531,89.659,518,62C364-3,309,23,253,76s-84,91-140,138
			S7,276,36,353s39,93,146,73s184-50,272-23c88,27,133,54,205.001,11C733.726,369.371,731.887,255.217,690.148,189.66z"/>
		<path style="opacity:0.7;fill:#FFFFFF;" d="M690.148,189.66C652.461,130.466,583.531,89.659,518,62C364-3,309,23,253,76
			s-84,91-140,138S7,276,36,353s39,93,146,73s184-50,272-23c88,27,133,54,205.001,11
			C733.726,369.371,731.887,255.217,690.148,189.66z"/>
	</g>
</g>
<g id="Floor">
	<g>
		<g>
			<polygon style="fill:#FFFFFF;stroke:#263238;stroke-linecap:round;stroke-linejoin:round;stroke-miterlimit:10;" points="
				473.606,337.574 280.317,337.574 292.787,307 461.136,307 			"/>
			<polygon style="fill:#FFFFFF;stroke:#263238;stroke-linecap:round;stroke-linejoin:round;stroke-miterlimit:10;" points="
				302.957,313.794 295.621,313.794 297.124,309.857 304.324,309.857 			"/>
			<polygon style="fill:#FFFFFF;stroke:#263238;stroke-linecap:round;stroke-linejoin:round;stroke-miterlimit:10;" points="
				313.313,313.794 305.977,313.794 307.288,309.857 314.488,309.857 			"/>
			<polygon style="fill:#FFFFFF;stroke:#263238;stroke-linecap:round;stroke-linejoin:round;stroke-miterlimit:10;" points="
				323.669,313.794 316.333,313.794 317.453,309.857 324.653,309.857 			"/>
			<polygon style="fill:#FFFFFF;stroke:#263238;stroke-linecap:round;stroke-linejoin:round;stroke-miterlimit:10;" points="
				334.025,313.794 326.689,313.794 327.618,309.857 334.818,309.857 			"/>
			<polygon style="fill:#FFFFFF;stroke:#263238;stroke-linecap:round;stroke-linejoin:round;stroke-miterlimit:10;" points="
				344.381,313.794 337.045,313.794 337.783,309.857 344.983,309.857 			"/>
			<polygon style="fill:#FFFFFF;stroke:#263238;stroke-linecap:round;stroke-linejoin:round;stroke-miterlimit:10;" points="
				354.737,313.794 347.401,313.794 347.947,309.857 355.147,309.857 			"/>
			<polygon style="fill:#FFFFFF;stroke:#263238;stroke-linecap:round;stroke-linejoin:round;stroke-miterlimit:10;" points="
				365.093,313.794 357.757,313.794 358.112,309.857 365.312,309.857 			"/>
			<polygon style="fill:#FFFFFF;stroke:#263238;stroke-linecap:round;stroke-linejoin:round;stroke-miterlimit:10;" points="
				375.449,313.794 368.113,313.794 368.277,309.857 375.477,309.857 			"/>
			<polygon style="fill:#FFFFFF;stroke:#263238;stroke-linecap:round;stroke-linejoin:round;stroke-miterlimit:10;" points="
				385.805,313.794 378.469,313.794 378.442,309.857 385.642,309.857 			"/>
			<polygon style="fill:#FFFFFF;stroke:#263238;stroke-linecap:round;stroke-linejoin:round;stroke-miterlimit:10;" points="
				396.161,313.794 388.825,313.794 388.606,309.857 395.806,309.857 			"/>
			<polygon style="fill:#FFFFFF;stroke:#263238;stroke-linecap:round;stroke-linejoin:round;stroke-miterlimit:10;" points="
				406.517,313.794 399.181,313.794 398.771,309.857 405.971,309.857 			"/>
			<polygon style="fill:#FFFFFF;stroke:#263238;stroke-linecap:round;stroke-linejoin:round;stroke-miterlimit:10;" points="
				416.873,313.794 409.538,313.794 408.936,309.857 416.136,309.857 			"/>
			<polygon style="fill:#FFFFFF;stroke:#263238;stroke-linecap:round;stroke-linejoin:round;stroke-miterlimit:10;" points="
				427.229,313.794 419.893,313.794 419.101,309.857 426.301,309.857 			"/>
			<polygon style="fill:#FFFFFF;stroke:#263238;stroke-linecap:round;stroke-linejoin:round;stroke-miterlimit:10;" points="
				437.585,313.794 430.25,313.794 429.265,309.857 436.465,309.857 			"/>
			<polygon style="fill:#FFFFFF;stroke:#263238;stroke-linecap:round;stroke-linejoin:round;stroke-miterlimit:10;" points="
				447.941,313.794 440.606,313.794 439.43,309.857 446.63,309.857 			"/>
			<polygon style="fill:#FFFFFF;stroke:#263238;stroke-linecap:round;stroke-linejoin:round;stroke-miterlimit:10;" points="
				458.297,313.794 450.962,313.794 449.595,309.857 456.795,309.857 			"/>
			<polygon style="fill:#FFFFFF;stroke:#263238;stroke-linecap:round;stroke-linejoin:round;stroke-miterlimit:10;" points="
				299.895,322.613 292.256,322.613 293.884,318.346 301.376,318.346 			"/>
			<polygon style="fill:#FFFFFF;stroke:#263238;stroke-linecap:round;stroke-linejoin:round;stroke-miterlimit:10;" points="
				310.68,322.613 303.04,322.613 304.461,318.346 311.953,318.346 			"/>
			<polygon style="fill:#FFFFFF;stroke:#263238;stroke-linecap:round;stroke-linejoin:round;stroke-miterlimit:10;" points="
				321.464,322.613 313.825,322.613 315.038,318.346 322.531,318.346 			"/>
			<polygon style="fill:#FFFFFF;stroke:#263238;stroke-linecap:round;stroke-linejoin:round;stroke-miterlimit:10;" points="
				332.249,322.613 324.609,322.613 325.616,318.346 333.108,318.346 			"/>
			<polygon style="fill:#FFFFFF;stroke:#263238;stroke-linecap:round;stroke-linejoin:round;stroke-miterlimit:10;" points="
				343.033,322.613 335.394,322.613 336.193,318.346 343.685,318.346 			"/>
			<polygon style="fill:#FFFFFF;stroke:#263238;stroke-linecap:round;stroke-linejoin:round;stroke-miterlimit:10;" points="
				353.817,322.613 346.178,322.613 346.77,318.346 354.262,318.346 			"/>
			<polygon style="fill:#FFFFFF;stroke:#263238;stroke-linecap:round;stroke-linejoin:round;stroke-miterlimit:10;" points="
				364.602,322.613 356.963,322.613 357.347,318.346 364.839,318.346 			"/>
			<polygon style="fill:#FFFFFF;stroke:#263238;stroke-linecap:round;stroke-linejoin:round;stroke-miterlimit:10;" points="
				375.386,322.613 367.747,322.613 367.924,318.346 375.417,318.346 			"/>
			<polygon style="fill:#FFFFFF;stroke:#263238;stroke-linecap:round;stroke-linejoin:round;stroke-miterlimit:10;" points="
				386.171,322.613 378.532,322.613 378.502,318.346 385.994,318.346 			"/>
			<polygon style="fill:#FFFFFF;stroke:#263238;stroke-linecap:round;stroke-linejoin:round;stroke-miterlimit:10;" points="
				396.955,322.613 389.316,322.613 389.079,318.346 396.571,318.346 			"/>
			<polygon style="fill:#FFFFFF;stroke:#263238;stroke-linecap:round;stroke-linejoin:round;stroke-miterlimit:10;" points="
				407.74,322.613 400.101,322.613 399.656,318.346 407.148,318.346 			"/>
			<polygon style="fill:#FFFFFF;stroke:#263238;stroke-linecap:round;stroke-linejoin:round;stroke-miterlimit:10;" points="
				418.524,322.613 410.885,322.613 410.233,318.346 417.725,318.346 			"/>
			<polygon style="fill:#FFFFFF;stroke:#263238;stroke-linecap:round;stroke-linejoin:round;stroke-miterlimit:10;" points="
				429.309,322.613 421.67,322.613 420.81,318.346 428.302,318.346 			"/>
			<polygon style="fill:#FFFFFF;stroke:#263238;stroke-linecap:round;stroke-linejoin:round;stroke-miterlimit:10;" points="
				440.093,322.613 432.454,322.613 431.388,318.346 438.88,318.346 			"/>
			<polygon style="fill:#FFFFFF;stroke:#263238;stroke-linecap:round;stroke-linejoin:round;stroke-miterlimit:10;" points="
				450.878,322.613 443.239,322.613 441.965,318.346 449.457,318.346 			"/>
			<polygon style="fill:#FFFFFF;stroke:#263238;stroke-linecap:round;stroke-linejoin:round;stroke-miterlimit:10;" points="
				461.662,322.613 454.023,322.613 452.542,318.346 460.034,318.346 			"/>
			<polygon style="fill:#FFFFFF;stroke:#263238;stroke-linecap:round;stroke-linejoin:round;stroke-miterlimit:10;" points="
				296.569,332.193 288.6,332.193 290.371,327.554 298.18,327.554 			"/>
			<polygon style="fill:#FFFFFF;stroke:#263238;stroke-linecap:round;stroke-linejoin:round;stroke-miterlimit:10;" points="
				307.819,332.193 299.85,332.193 301.395,327.554 309.204,327.554 			"/>
			<polygon style="fill:#FFFFFF;stroke:#263238;stroke-linecap:round;stroke-linejoin:round;stroke-miterlimit:10;" points="
				319.069,332.193 311.1,332.193 312.42,327.554 320.229,327.554 			"/>
			<polygon style="fill:#FFFFFF;stroke:#263238;stroke-linecap:round;stroke-linejoin:round;stroke-miterlimit:10;" points="
				397.818,332.193 322.35,332.193 323.444,327.554 397.4,327.554 			"/>
			<polygon style="fill:#FFFFFF;stroke:#263238;stroke-linecap:round;stroke-linejoin:round;stroke-miterlimit:10;" points="
				409.068,332.193 401.099,332.193 400.616,327.554 408.425,327.554 			"/>
			<polygon style="fill:#FFFFFF;stroke:#263238;stroke-linecap:round;stroke-linejoin:round;stroke-miterlimit:10;" points="
				420.318,332.193 412.349,332.193 411.64,327.554 419.449,327.554 			"/>
			<polygon style="fill:#FFFFFF;stroke:#263238;stroke-linecap:round;stroke-linejoin:round;stroke-miterlimit:10;" points="
				431.568,332.193 423.599,332.193 422.665,327.554 430.474,327.554 			"/>
			<polygon style="fill:#FFFFFF;stroke:#263238;stroke-linecap:round;stroke-linejoin:round;stroke-miterlimit:10;" points="
				442.818,332.193 434.849,332.193 433.689,327.554 441.498,327.554 			"/>
			<polygon style="fill:#FFFFFF;stroke:#263238;stroke-linecap:round;stroke-linejoin:round;stroke-miterlimit:10;" points="
				454.068,332.193 446.099,332.193 444.714,327.554 452.523,327.554 			"/>
			<polygon style="fill:#FFFFFF;stroke:#263238;stroke-linecap:round;stroke-linejoin:round;stroke-miterlimit:10;" points="
				465.317,332.193 457.349,332.193 455.738,327.554 463.547,327.554 			"/>
		</g>
		
			<rect x="280.317" y="337.574" style="fill:#FFFFFF;stroke:#263238;stroke-linecap:round;stroke-linejoin:round;stroke-miterlimit:10;" width="193.164" height="2.651"/>
	</g>
</g>
<g id="Window">
	<g>
		<g>
			<polygon style="fill:none;stroke:#808080;stroke-linecap:round;stroke-linejoin:round;stroke-miterlimit:10;" points="
				134.214,65.277 42.59,65.277 41.38,80.074 134.214,80.074 			"/>
			<polygon style="fill:none;stroke:#808080;stroke-linecap:round;stroke-linejoin:round;stroke-miterlimit:10;" points="
				134.214,80.074 42.59,80.074 41.38,94.871 134.214,94.871 			"/>
			<polygon style="fill:none;stroke:#808080;stroke-linecap:round;stroke-linejoin:round;stroke-miterlimit:10;" points="
				134.214,94.871 42.59,94.871 41.38,109.668 134.214,109.668 			"/>
			<polygon style="fill:none;stroke:#808080;stroke-linecap:round;stroke-linejoin:round;stroke-miterlimit:10;" points="
				134.214,109.668 42.59,109.668 41.38,124.465 134.214,124.465 			"/>
			<polygon style="fill:none;stroke:#808080;stroke-linecap:round;stroke-linejoin:round;stroke-miterlimit:10;" points="
				134.214,124.465 42.59,124.465 41.38,139.263 134.214,139.263 			"/>
			<polygon style="fill:none;stroke:#808080;stroke-linecap:round;stroke-linejoin:round;stroke-miterlimit:10;" points="
				134.214,139.263 42.59,139.263 41.38,154.06 134.214,154.06 			"/>
			<polygon style="fill:none;stroke:#808080;stroke-linecap:round;stroke-linejoin:round;stroke-miterlimit:10;" points="
				134.214,154.06 42.59,154.06 41.38,168.857 134.214,168.857 			"/>
			<polygon style="fill:none;stroke:#808080;stroke-linecap:round;stroke-linejoin:round;stroke-miterlimit:10;" points="
				134.214,168.857 42.59,168.857 41.38,183.654 134.214,183.654 			"/>
			<polygon style="fill:none;stroke:#808080;stroke-linecap:round;stroke-linejoin:round;stroke-miterlimit:10;" points="
				134.214,183.654 42.59,183.654 41.38,198.451 134.214,198.451 			"/>
			<polygon style="fill:none;stroke:#808080;stroke-linecap:round;stroke-linejoin:round;stroke-miterlimit:10;" points="
				134.214,198.451 42.59,198.451 41.38,213.248 134.214,213.248 			"/>
			<polygon style="fill:none;stroke:#808080;stroke-linecap:round;stroke-linejoin:round;stroke-miterlimit:10;" points="
				134.214,213.248 42.59,213.248 41.38,228.045 134.214,228.045 			"/>
			<polygon style="fill:none;stroke:#808080;stroke-linecap:round;stroke-linejoin:round;stroke-miterlimit:10;" points="
				134.214,228.045 42.59,228.045 41.38,242.842 134.214,242.842 			"/>
			<polygon style="fill:none;stroke:#808080;stroke-linecap:round;stroke-linejoin:round;stroke-miterlimit:10;" points="
				134.214,242.842 42.59,242.842 41.38,257.639 134.214,257.639 			"/>
			<polygon style="fill:none;stroke:#808080;stroke-linecap:round;stroke-linejoin:round;stroke-miterlimit:10;" points="
				134.214,257.639 42.59,257.639 41.38,272.437 134.214,272.437 			"/>
			<polygon style="fill:none;stroke:#808080;stroke-linecap:round;stroke-linejoin:round;stroke-miterlimit:10;" points="
				134.214,272.437 42.59,272.437 41.38,287.234 134.214,287.234 			"/>
		</g>
		<g>
			<polygon style="fill:none;stroke:#808080;stroke-linecap:round;stroke-linejoin:round;stroke-miterlimit:10;" points="
				228.402,65.277 136.777,65.277 135.567,80.074 228.402,80.074 			"/>
			<polygon style="fill:none;stroke:#808080;stroke-linecap:round;stroke-linejoin:round;stroke-miterlimit:10;" points="
				228.402,80.074 136.777,80.074 135.567,94.871 228.402,94.871 			"/>
			<polygon style="fill:none;stroke:#808080;stroke-linecap:round;stroke-linejoin:round;stroke-miterlimit:10;" points="
				228.402,94.871 136.777,94.871 135.567,109.668 228.402,109.668 			"/>
			<polygon style="fill:none;stroke:#808080;stroke-linecap:round;stroke-linejoin:round;stroke-miterlimit:10;" points="
				228.402,109.668 136.777,109.668 135.567,124.465 228.402,124.465 			"/>
			<polygon style="fill:none;stroke:#808080;stroke-linecap:round;stroke-linejoin:round;stroke-miterlimit:10;" points="
				228.402,124.465 136.777,124.465 135.567,139.263 228.402,139.263 			"/>
			<polygon style="fill:none;stroke:#808080;stroke-linecap:round;stroke-linejoin:round;stroke-miterlimit:10;" points="
				228.402,139.263 136.777,139.263 135.567,154.06 228.402,154.06 			"/>
			<polygon style="fill:none;stroke:#808080;stroke-linecap:round;stroke-linejoin:round;stroke-miterlimit:10;" points="
				228.402,154.06 136.777,154.06 135.567,168.857 228.402,168.857 			"/>
			<polygon style="fill:none;stroke:#808080;stroke-linecap:round;stroke-linejoin:round;stroke-miterlimit:10;" points="
				228.402,168.857 136.777,168.857 135.567,183.654 228.402,183.654 			"/>
			<polygon style="fill:none;stroke:#808080;stroke-linecap:round;stroke-linejoin:round;stroke-miterlimit:10;" points="
				228.402,183.654 136.777,183.654 135.567,198.451 228.402,198.451 			"/>
			<polygon style="fill:none;stroke:#808080;stroke-linecap:round;stroke-linejoin:round;stroke-miterlimit:10;" points="
				228.402,198.451 136.777,198.451 135.567,213.248 228.402,213.248 			"/>
			<polygon style="fill:none;stroke:#808080;stroke-linecap:round;stroke-linejoin:round;stroke-miterlimit:10;" points="
				228.402,213.248 136.777,213.248 135.567,228.045 228.402,228.045 			"/>
			<polygon style="fill:none;stroke:#808080;stroke-linecap:round;stroke-linejoin:round;stroke-miterlimit:10;" points="
				228.402,228.045 136.777,228.045 135.567,242.842 228.402,242.842 			"/>
			<polygon style="fill:none;stroke:#808080;stroke-linecap:round;stroke-linejoin:round;stroke-miterlimit:10;" points="
				228.402,242.842 136.777,242.842 135.567,257.639 228.402,257.639 			"/>
			<polygon style="fill:none;stroke:#808080;stroke-linecap:round;stroke-linejoin:round;stroke-miterlimit:10;" points="
				228.402,257.639 136.777,257.639 135.567,272.437 228.402,272.437 			"/>
			<polygon style="fill:none;stroke:#808080;stroke-linecap:round;stroke-linejoin:round;stroke-miterlimit:10;" points="
				228.402,272.437 136.777,272.437 135.567,287.234 228.402,287.234 			"/>
		</g>
		
			<rect x="39.238" y="53.821" style="fill:none;stroke:#808080;stroke-linecap:round;stroke-linejoin:round;stroke-miterlimit:10;" width="193.752" height="11.163"/>
		
			<line style="fill:none;stroke:#808080;stroke-linecap:round;stroke-linejoin:round;stroke-miterlimit:10;" x1="232.99" y1="64.984" x2="232.99" y2="261.575"/>
		
			<line style="fill:none;stroke:#808080;stroke-linecap:round;stroke-linejoin:round;stroke-miterlimit:10;" x1="230.879" y1="65.298" x2="230.879" y2="200.179"/>
		
			<rect x="231.757" y="261.14" style="fill:#263238;stroke:#808080;stroke-linecap:round;stroke-linejoin:round;stroke-miterlimit:10;" width="2.605" height="5.007"/>
		
			<rect x="229.411" y="199.105" style="fill:#263238;stroke:#808080;stroke-linecap:round;stroke-linejoin:round;stroke-miterlimit:10;" width="2.605" height="5.007"/>
	</g>
</g>
<g id="Picture">
	<g>
		
			<rect x="577" y="65" style="fill:none;stroke:#808080;stroke-linecap:round;stroke-linejoin:round;stroke-miterlimit:10;" width="118" height="140"/>
		
			<rect x="582.9" y="72" style="fill:none;stroke:#808080;stroke-linecap:round;stroke-linejoin:round;stroke-miterlimit:10;" width="106.2" height="126"/>
		
			<rect x="611.557" y="106" style="fill:none;stroke:#808080;stroke-linecap:round;stroke-linejoin:round;stroke-miterlimit:10;" width="48.886" height="58"/>
	</g>
</g>
<g id="Table">
	<g>
		<g>
			<polygon style="fill:#E3E3E3;" points="118.933,446.492 118.933,359.35 655.468,359.35 656.18,451.474 640.852,448.408 641,383 
				135,383 135.027,445.726 			"/>
			<polyline style="fill:none;stroke:#263238;stroke-linecap:round;stroke-linejoin:round;stroke-miterlimit:10;" points="
				119,452.31 119,351 656,351 656,454.793 			"/>
			
				<rect x="119.049" y="359.35" style="fill:#263238;stroke:#263238;stroke-linecap:round;stroke-linejoin:round;stroke-miterlimit:10;" width="536.418" height="8.184"/>
			<polyline style="fill:none;stroke:#263238;stroke-linecap:round;stroke-linejoin:round;stroke-miterlimit:10;" points="
				135,451.31 135,383 641,383 641,455.793 			"/>
		</g>
		
			<rect x="100.35" y="346.333" style="fill:#CCCCCC;stroke:#263238;stroke-linecap:round;stroke-linejoin:round;stroke-miterlimit:10;" width="563.583" height="13.101"/>
		<polygon style="fill:#FFFFFF;stroke:#263238;stroke-linecap:round;stroke-linejoin:round;stroke-miterlimit:10;" points="
			663.932,346.284 100.35,346.284 142.618,287.579 621.664,287.579 		"/>
	</g>
</g>
<g id="Icons">
	<g>
		<g>
			
				<ellipse transform="matrix(0.7071 -0.7071 0.7071 0.7071 79.108 320.2305)" style="fill:none;stroke:#263238;stroke-linecap:round;stroke-linejoin:round;stroke-miterlimit:10;" cx="426.106" cy="64.623" rx="26.656" ry="26.656"/>
			<path style="fill:none;stroke:#263238;stroke-linecap:round;stroke-linejoin:round;stroke-miterlimit:10;" d="M442.653,68.488
				l-2.124,2.143l-14.152,14.133l-16.276-16.276c-3.89-3.909-3.89-10.243,0-14.133c1.955-1.955,4.511-2.932,7.085-2.932
				c2.556,0,5.112,0.977,7.066,2.932l2.143,2.142l2.124-2.142c1.955-1.955,4.511-2.932,7.067-2.932s5.112,0.977,7.066,2.932
				C446.562,58.246,446.562,64.579,442.653,68.488z"/>
		</g>
		<g>
			
				<ellipse transform="matrix(0.389 -0.9212 0.9212 0.389 112.5478 298.9373)" style="fill:none;stroke:#263238;stroke-linecap:round;stroke-linejoin:round;stroke-miterlimit:10;" cx="281.631" cy="64.623" rx="26.656" ry="26.656"/>
			<g>
				
					<ellipse transform="matrix(0.3868 -0.9222 0.9222 0.3868 113.1068 299.3397)" style="fill:none;stroke:#263238;stroke-linecap:round;stroke-linejoin:round;stroke-miterlimit:10;" cx="281.631" cy="64.623" rx="17.429" ry="17.429"/>
				<path style="fill:none;stroke:#263238;stroke-linecap:round;stroke-linejoin:round;stroke-miterlimit:10;" d="M271.57,70.006
					c1.923,3.586,5.707,6.025,10.061,6.025c4.199,0,7.868-2.268,9.848-5.647"/>
				<path style="fill:#263238;" d="M277.487,61.403c0,1.99-0.587,3.602-1.31,3.602c-0.724,0-1.31-1.613-1.31-3.602
					c0-1.99,0.586-3.602,1.31-3.602C276.901,57.801,277.487,59.414,277.487,61.403z"/>
				<path style="fill:#263238;" d="M287.312,61.403c0,1.99-0.586,3.602-1.31,3.602s-1.31-1.613-1.31-3.602
					c0-1.99,0.586-3.602,1.31-3.602S287.312,59.414,287.312,61.403z"/>
			</g>
		</g>
		<g>
			
				<ellipse transform="matrix(0.9715 -0.2372 0.2372 0.9715 -1.1076 120.0406)" style="fill:none;stroke:#263238;stroke-linecap:round;stroke-linejoin:round;stroke-miterlimit:10;" cx="498.344" cy="64.623" rx="26.656" ry="26.656"/>
			<g>
				
					<ellipse transform="matrix(0.9713 -0.2379 0.2379 0.9713 -1.0662 120.4123)" style="fill:none;stroke:#263238;stroke-linecap:round;stroke-linejoin:round;stroke-miterlimit:10;" cx="498.344" cy="64.623" rx="17.429" ry="17.429"/>
				<path style="fill:none;stroke:#263238;stroke-linecap:round;stroke-linejoin:round;stroke-miterlimit:10;" d="M488.152,67.821
					c1.18,4.39,4.198,8.21,10.192,8.21c6.17,0,9.096-3.454,10.194-8.21H488.152z"/>
				<path style="fill:#263238;" d="M494.201,61.403c0,1.99-0.587,3.602-1.31,3.602c-0.723,0-1.31-1.613-1.31-3.602
					c0-1.99,0.586-3.602,1.31-3.602C493.614,57.801,494.201,59.414,494.201,61.403z"/>
				<path style="fill:#263238;" d="M504.026,61.403c0,1.99-0.586,3.602-1.31,3.602s-1.31-1.613-1.31-3.602
					c0-1.99,0.586-3.602,1.31-3.602S504.026,59.414,504.026,61.403z"/>
			</g>
		</g>
		<g>
			
				<ellipse transform="matrix(0.389 -0.9212 0.9212 0.389 156.6866 365.4862)" style="fill:none;stroke:#263238;stroke-linecap:round;stroke-linejoin:round;stroke-miterlimit:10;" cx="353.868" cy="64.623" rx="26.656" ry="26.656"/>
			<g>
				
					<ellipse transform="matrix(0.3868 -0.9222 0.9222 0.3868 157.4043 365.9554)" style="fill:none;stroke:#263238;stroke-linecap:round;stroke-linejoin:round;stroke-miterlimit:10;" cx="353.868" cy="64.623" rx="17.429" ry="17.429"/>
				<path style="fill:none;stroke:#263238;stroke-linecap:round;stroke-linejoin:round;stroke-miterlimit:10;" d="M343.808,76.031
					c1.923-3.586,5.707-6.025,10.061-6.025c4.199,0,7.868,2.269,9.848,5.647"/>
				<path style="fill:#263238;" d="M349.725,61.403c0,1.99-0.586,3.602-1.31,3.602s-1.31-1.613-1.31-3.602
					c0-1.99,0.586-3.602,1.31-3.602S349.725,59.414,349.725,61.403z"/>
				<path style="fill:#263238;" d="M359.55,61.403c0,1.99-0.586,3.602-1.31,3.602c-0.723,0-1.31-1.613-1.31-3.602
					c0-1.99,0.587-3.602,1.31-3.602C358.964,57.801,359.55,59.414,359.55,61.403z"/>
			</g>
		</g>
	</g>
</g>
<g id="Device_3">
	<g>
		<path style="fill:#263238;stroke:#263238;stroke-linecap:round;stroke-linejoin:round;stroke-miterlimit:10;" d="M600.333,283
			l8.816,10.931c2.025,2.511,1.6,6.194-0.943,8.178L587.833,318l-45-16l19.741-12.239c2.844-1.763,3.599-5.567,1.643-8.282
			L558.833,274L600.333,283z"/>
		<polygon style="fill:#FFFFFF;stroke:#263238;stroke-linecap:round;stroke-linejoin:round;stroke-miterlimit:10;" points="
			504.333,122.594 688.833,152.5 688.833,305 683.333,306.5 498.833,264.094 498.833,124.094 		"/>
		<g>
			<polygon style="fill:#263238;stroke:#263238;stroke-linecap:round;stroke-linejoin:round;stroke-miterlimit:10;" points="
				498.833,264.094 683.333,306.5 683.333,154 498.833,124.094 			"/>
			<polygon style="fill:#92E3A9;stroke:#263238;stroke-linecap:round;stroke-linejoin:round;stroke-miterlimit:10;" points="
				503.833,261.031 678.333,301.563 678.333,157.063 503.833,129.031 			"/>
		</g>
	</g>
</g>
<g id="Device_2">
	<g>
		<polygon style="fill:#263238;stroke:#263238;stroke-linecap:round;stroke-linejoin:round;stroke-miterlimit:10;" points="
			414.198,294.784 345.745,294.784 351.449,273.986 351.449,262.102 408.493,262.102 408.493,275.174 		"/>
		
			<rect x="275.5" y="124" style="fill:#263238;stroke:#263238;stroke-linecap:round;stroke-linejoin:round;stroke-miterlimit:10;" width="207.5" height="140"/>
		
			<rect x="280.5" y="128" style="fill:#FFFFFF;stroke:#263238;stroke-linecap:round;stroke-linejoin:round;stroke-miterlimit:10;" width="197.5" height="132"/>
	</g>
</g>
<g id="Device_1">
	<g>
		<path style="fill:#263238;stroke:#263238;stroke-linecap:round;stroke-linejoin:round;stroke-miterlimit:10;" d="M160,283
			l-8.816,10.931c-2.025,2.511-1.6,6.194,0.943,8.178L172.5,318l45-16l-19.741-12.239c-2.844-1.763-3.599-5.567-1.644-8.282
			L201.5,274L160,283z"/>
		<polygon style="fill:#FFFFFF;stroke:#263238;stroke-linecap:round;stroke-linejoin:round;stroke-miterlimit:10;" points="
			256,122.594 71.5,152.5 71.5,305 77,306.5 261.5,264.094 261.5,124.094 		"/>
		<g>
			<polygon style="fill:#263238;stroke:#263238;stroke-linecap:round;stroke-linejoin:round;stroke-miterlimit:10;" points="
				261.5,264.094 77,306.5 77,154 261.5,124.094 			"/>
			<polygon style="fill:#92E3A9;stroke:#263238;stroke-linecap:round;stroke-linejoin:round;stroke-miterlimit:10;" points="
				256.5,261.031 82,301.563 82,157.063 256.5,129.031 			"/>
		</g>
	</g>
</g>
<g id="Charts_3">
	<g>
		<g>
			
				<ellipse transform="matrix(0.7408 -0.6717 0.6717 0.7408 18.8715 423.7455)" style="fill:#263238;stroke:#263238;stroke-linecap:round;stroke-linejoin:round;stroke-miterlimit:10;" cx="558.492" cy="187.421" rx="24.903" ry="30.285"/>
			<g>
				<path style="fill:#FFFFFF;stroke:#263238;stroke-linecap:round;stroke-linejoin:round;stroke-miterlimit:10;" d="
					M573.983,184.087l-10.511-2.06c0,0,0.973-3.118,1.363-7.13c0.389-4.011-0.973-4.862-4.088-5.473
					c-3.114-0.61,0,2.725-1.557,5.729c-1.245,2.402-4.977,4.315-6.424,4.985v18.282l15.572,3.052
					c5.256,0.251,1.946-4.096,1.946-4.096c3.893-0.016,1.557-4.366,1.557-4.366c3.893,0.179,1.168-4.053,1.168-4.053
					C577.097,187.812,573.983,184.087,573.983,184.087z"/>
				<polygon style="fill:#FFFFFF;stroke:#263238;stroke-linecap:round;stroke-linejoin:round;stroke-miterlimit:10;" points="
					541.865,195.701 550.625,197.417 550.625,179.704 541.865,177.988 				"/>
			</g>
		</g>
		<g>
			
				<ellipse transform="matrix(0.7408 -0.6717 0.6717 0.7408 27.2586 471.2533)" style="fill:#FFFFFF;stroke:#263238;stroke-linecap:round;stroke-linejoin:round;stroke-miterlimit:10;" cx="624.245" cy="200.307" rx="24.903" ry="30.285"/>
			<g>
				<path style="fill:#263238;stroke:#263238;stroke-linecap:round;stroke-linejoin:round;stroke-miterlimit:10;" d="
					M608.754,203.64l10.511,2.06c0,0-0.973,3.118-1.362,7.13c-0.389,4.011,0.973,4.862,4.088,5.473c3.114,0.61,0-2.725,1.557-5.729
					c1.245-2.402,4.977-4.315,6.423-4.985v-18.282l-15.572-3.052c-5.256-0.251-1.946,4.096-1.946,4.096
					c-3.893,0.016-1.557,4.367-1.557,4.367c-3.893-0.179-1.168,4.053-1.168,4.053C605.64,199.915,608.754,203.64,608.754,203.64z"/>
				<polygon style="fill:#263238;stroke:#263238;stroke-linecap:round;stroke-linejoin:round;stroke-miterlimit:10;" points="
					640.872,192.027 632.113,190.31 632.113,208.023 640.872,209.74 				"/>
			</g>
		</g>
		<g>
			<polygon style="fill:#FFFFFF;stroke:#263238;stroke-linecap:round;stroke-linejoin:round;stroke-miterlimit:10;" points="
				520.442,251.253 543.638,236.905 557.555,248.383 582.739,225.428 592.018,251.97 603.284,244.796 611.9,254.122 637.084,241.21 
				651.001,281.382 			"/>
			<polygon style="fill:#263238;stroke:#263238;stroke-linecap:round;stroke-linejoin:round;stroke-miterlimit:10;" points="
				520.442,251.253 538.999,244.079 558.218,254.839 580.088,241.21 592.68,258.426 603.284,252.687 611.9,258.426 633.77,250.535 
				651.001,281.382 			"/>
		</g>
		
			<line style="fill:none;stroke:#263238;stroke-linecap:round;stroke-linejoin:round;stroke-miterlimit:10;" x1="544.115" y1="149.387" x2="575.679" y2="154.409"/>
		
			<line style="fill:none;stroke:#263238;stroke-linecap:round;stroke-linejoin:round;stroke-miterlimit:10;" x1="610.829" y1="159.43" x2="642.393" y2="164.452"/>
	</g>
</g>
<g id="Charts_2">
	<g>
		
			<rect x="299.402" y="144.135" style="fill:#FFFFFF;stroke:#263238;stroke-linecap:round;stroke-linejoin:round;stroke-miterlimit:10;" width="48.064" height="7.662"/>
		
			<rect x="299.402" y="158.066" style="fill:#FFFFFF;stroke:#263238;stroke-linecap:round;stroke-linejoin:round;stroke-miterlimit:10;" width="24.38" height="4.179"/>
		<g>
			
				<circle style="fill:#263238;stroke:#263238;stroke-linecap:round;stroke-linejoin:round;stroke-miterlimit:10;" cx="389.151" cy="174.593" r="14.183"/>
			<path style="fill:#FFFFFF;stroke:#263238;stroke-linecap:round;stroke-linejoin:round;stroke-miterlimit:10;" d="
				M397.955,176.649l-1.13,1.14l-7.53,7.52l-8.66-8.66c-2.07-2.08-2.07-5.45,0-7.52c1.04-1.04,2.4-1.56,3.77-1.56
				c1.36,0,2.72,0.52,3.76,1.56l1.14,1.14l1.13-1.14c1.04-1.04,2.4-1.56,3.76-1.56c1.36,0,2.72,0.52,3.76,1.56
				C400.035,171.199,400.035,174.569,397.955,176.649z"/>
		</g>
		<g>
			
				<circle style="fill:#263238;stroke:#263238;stroke-linecap:round;stroke-linejoin:round;stroke-miterlimit:10;" cx="314.363" cy="199.278" r="14.183"/>
			<g>
				
					<ellipse transform="matrix(0.7071 -0.7071 0.7071 0.7071 -48.8361 280.655)" style="fill:#FFFFFF;stroke:#263238;stroke-linecap:round;stroke-linejoin:round;stroke-miterlimit:10;" cx="314.363" cy="199.278" rx="9.274" ry="9.274"/>
				<path style="fill:none;stroke:#263238;stroke-linecap:round;stroke-linejoin:round;stroke-miterlimit:10;" d="M309.009,202.142
					c1.023,1.908,3.036,3.206,5.353,3.206c2.234,0,4.187-1.207,5.24-3.005"/>
				<ellipse style="fill:#263238;" cx="311.461" cy="197.564" rx="0.697" ry="1.917"/>
				<path style="fill:#263238;" d="M317.386,197.564c0,1.059-0.312,1.917-0.697,1.917c-0.385,0-0.697-0.858-0.697-1.917
					c0-1.059,0.312-1.917,0.697-1.917C317.074,195.648,317.386,196.506,317.386,197.564z"/>
			</g>
		</g>
		<g>
			
				<ellipse transform="matrix(0.3341 -0.9425 0.9425 0.3341 142.8086 503.9037)" style="fill:#263238;stroke:#263238;stroke-linecap:round;stroke-linejoin:round;stroke-miterlimit:10;" cx="428.032" cy="150.882" rx="14.183" ry="14.183"/>
			<g>
				
					<ellipse transform="matrix(0.987 -0.1606 0.1606 0.987 -18.6794 70.7215)" style="fill:#FFFFFF;stroke:#263238;stroke-linecap:round;stroke-linejoin:round;stroke-miterlimit:10;" cx="428.032" cy="150.882" rx="9.274" ry="9.274"/>
				<path style="fill:none;stroke:#263238;stroke-linecap:round;stroke-linejoin:round;stroke-miterlimit:10;" d="M422.609,152.583
					c0.628,2.336,2.234,4.369,5.423,4.369c3.283,0,4.84-1.838,5.424-4.369H422.609z"/>
				<path style="fill:#263238;" d="M425.828,149.168c0,1.059-0.312,1.917-0.697,1.917c-0.385,0-0.697-0.858-0.697-1.917
					c0-1.059,0.312-1.917,0.697-1.917C425.516,147.251,425.828,148.11,425.828,149.168z"/>
				<path style="fill:#263238;" d="M431.055,149.168c0,1.059-0.312,1.917-0.697,1.917c-0.385,0-0.697-0.858-0.697-1.917
					c0-1.059,0.312-1.917,0.697-1.917C430.743,147.251,431.055,148.11,431.055,149.168z"/>
			</g>
		</g>
		<g>
			
				<circle style="fill:#263238;stroke:#263238;stroke-linecap:round;stroke-linejoin:round;stroke-miterlimit:10;" cx="352.105" cy="188.428" r="14.183"/>
			<g>
				
					<ellipse transform="matrix(0.3713 -0.9285 0.9285 0.3713 46.4071 445.3941)" style="fill:#FFFFFF;stroke:#263238;stroke-linecap:round;stroke-linejoin:round;stroke-miterlimit:10;" cx="352.105" cy="188.428" rx="9.274" ry="9.274"/>
				<path style="fill:none;stroke:#263238;stroke-linecap:round;stroke-linejoin:round;stroke-miterlimit:10;" d="M346.752,194.498
					c1.023-1.908,3.036-3.206,5.353-3.206c2.234,0,4.186,1.207,5.24,3.005"/>
				<path style="fill:#263238;" d="M349.901,186.714c0,1.059-0.312,1.917-0.697,1.917c-0.385,0-0.697-0.858-0.697-1.917
					c0-1.059,0.312-1.917,0.697-1.917C349.589,184.797,349.901,185.656,349.901,186.714z"/>
				<ellipse style="fill:#263238;" cx="354.431" cy="186.714" rx="0.697" ry="1.917"/>
			</g>
		</g>
		<g>
			
				<rect x="300.795" y="216.578" style="fill:#92E3A9;stroke:#263238;stroke-linecap:round;stroke-linejoin:round;stroke-miterlimit:10;" width="25.583" height="13.932"/>
			
				<rect x="339.17" y="205.99" style="fill:#92E3A9;stroke:#263238;stroke-linecap:round;stroke-linejoin:round;stroke-miterlimit:10;" width="25.583" height="24.519"/>
			
				<rect x="377.545" y="192.059" style="fill:#92E3A9;stroke:#263238;stroke-linecap:round;stroke-linejoin:round;stroke-miterlimit:10;" width="25.583" height="38.451"/>
			
				<rect x="415.92" y="169.211" style="fill:#92E3A9;stroke:#263238;stroke-linecap:round;stroke-linejoin:round;stroke-miterlimit:10;" width="25.583" height="61.298"/>
		</g>
		<g>
			
				<ellipse transform="matrix(0.7071 -0.7071 0.7071 0.7071 9.3745 375.2444)" style="fill:#FFFFFF;stroke:#263238;stroke-linecap:round;stroke-linejoin:round;stroke-miterlimit:10;" cx="457.647" cy="176.306" rx="9.804" ry="9.804"/>
			<g>
				<path style="fill:#FFFFFF;stroke:#263238;stroke-linecap:round;stroke-linejoin:round;stroke-miterlimit:10;" d="
					M463.178,174.032h-3.753c0,0,0.348-1.181,0.486-2.641c0.139-1.459-0.347-1.668-1.459-1.668c-1.112,0,0,0.973-0.556,2.154
					c-0.445,0.945-1.777,1.889-2.293,2.229v6.527h5.559c1.876-0.278,0.695-1.598,0.695-1.598c1.39-0.278,0.556-1.668,0.556-1.668
					c1.39-0.209,0.417-1.529,0.417-1.529C464.29,175.144,463.178,174.032,463.178,174.032z"/>
				
					<rect x="451.712" y="174.102" style="fill:#FFFFFF;stroke:#263238;stroke-linecap:round;stroke-linejoin:round;stroke-miterlimit:10;" width="3.127" height="6.324"/>
			</g>
		</g>
		<g>
			
				<ellipse transform="matrix(0.7071 -0.7071 0.7071 0.7071 -20.9939 387.8234)" style="fill:#FFFFFF;stroke:#263238;stroke-linecap:round;stroke-linejoin:round;stroke-miterlimit:10;" cx="457.647" cy="219.254" rx="9.804" ry="9.804"/>
			<g>
				<path style="fill:#FFFFFF;stroke:#263238;stroke-linecap:round;stroke-linejoin:round;stroke-miterlimit:10;" d="
					M452.117,221.527h3.753c0,0-0.348,1.181-0.487,2.641c-0.139,1.459,0.348,1.668,1.459,1.668c1.112,0,0-0.973,0.556-2.154
					c0.445-0.945,1.777-1.889,2.293-2.229v-6.527h-5.559c-1.876,0.278-0.695,1.598-0.695,1.598c-1.39,0.278-0.556,1.668-0.556,1.668
					c-1.39,0.208-0.417,1.529-0.417,1.529C451.005,220.416,452.117,221.527,452.117,221.527z"/>
				
					<rect x="460.456" y="215.134" transform="matrix(-1 -1.224647e-16 1.224647e-16 -1 924.039 436.5922)" style="fill:#FFFFFF;stroke:#263238;stroke-linecap:round;stroke-linejoin:round;stroke-miterlimit:10;" width="3.127" height="6.324"/>
			</g>
		</g>
	</g>
</g>
<g id="Charts_1">
	<g>
		<g>
			<path style="fill:#FFFFFF;stroke:#263238;stroke-linecap:round;stroke-linejoin:round;stroke-miterlimit:10;" d="
				M208.343,183.309l-103.759,20.47c-2.755,0.544-4.994-0.899-4.994-3.223v-18.61c0-2.324,2.239-4.619,4.994-5.125l103.759-19.037
				c2.463-0.452,4.455,0.958,4.455,3.148v17.533C212.798,180.655,210.806,182.823,208.343,183.309z"/>
			<path style="fill:#FFFFFF;stroke:#263238;stroke-linecap:round;stroke-linejoin:round;stroke-miterlimit:10;" d="M125.2,186.141
				c0-4.652-4.438-7.598-9.941-6.575c-5.534,1.029-10.044,5.677-10.044,10.377s4.51,7.632,10.044,6.555
				C120.761,195.428,125.2,190.793,125.2,186.141z"/>
			
				<line style="fill:none;stroke:#263238;stroke-linecap:round;stroke-linejoin:round;stroke-miterlimit:10;" x1="135.04" y1="180.148" x2="178.106" y2="172.047"/>
			
				<line style="fill:none;stroke:#263238;stroke-linecap:round;stroke-linejoin:round;stroke-miterlimit:10;" x1="135.04" y1="183.873" x2="178.106" y2="175.688"/>
			
				<line style="fill:none;stroke:#263238;stroke-linecap:round;stroke-linejoin:round;stroke-miterlimit:10;" x1="135.04" y1="188.528" x2="199.178" y2="176.183"/>
		</g>
		<g>
			<path style="fill:#FFFFFF;stroke:#263238;stroke-linecap:round;stroke-linejoin:round;stroke-miterlimit:10;" d="
				M208.343,258.854l-103.759,24.71c-2.755,0.656-4.994-0.695-4.994-3.019v-18.61c0-2.324,2.239-4.711,4.994-5.329l103.759-23.277
				c2.463-0.553,4.455,0.776,4.455,2.965v17.533C212.798,256.018,210.806,258.268,208.343,258.854z"/>
			<path style="fill:#FFFFFF;stroke:#263238;stroke-linecap:round;stroke-linejoin:round;stroke-miterlimit:10;" d="M125.2,265.084
				c0-4.652-4.438-7.417-9.941-6.169c-5.534,1.255-10.044,6.088-10.044,10.788c0,4.7,4.51,7.448,10.044,6.145
				C120.761,274.552,125.2,269.736,125.2,265.084z"/>
			
				<line style="fill:none;stroke:#263238;stroke-linecap:round;stroke-linejoin:round;stroke-miterlimit:10;" x1="135.04" y1="258.689" x2="178.106" y2="248.828"/>
			
				<line style="fill:none;stroke:#263238;stroke-linecap:round;stroke-linejoin:round;stroke-miterlimit:10;" x1="135.04" y1="262.414" x2="178.106" y2="252.469"/>
			
				<line style="fill:none;stroke:#263238;stroke-linecap:round;stroke-linejoin:round;stroke-miterlimit:10;" x1="135.04" y1="267.069" x2="199.178" y2="252.103"/>
		</g>
		<g>
			<path style="fill:#92E3A9;stroke:#263238;stroke-linecap:round;stroke-linejoin:round;stroke-miterlimit:10;" d="M218.14,161.599
				c0-4.825-4.382-7.939-9.817-6.952c-5.466,0.994-9.922,5.757-9.922,10.633s4.455,7.978,9.922,6.932
				C213.758,171.173,218.14,166.424,218.14,161.599z"/>
			<path style="fill:#FFFFFF;stroke:#263238;stroke-linecap:round;stroke-linejoin:round;stroke-miterlimit:10;" d="
				M214.429,163.561l-0.781,0.85l-5.224,5.636l-6.045-4.231c-1.451-1.022-1.451-3.117,0-4.672c0.728-0.78,1.679-1.278,2.636-1.455
				c0.949-0.175,1.898-0.027,2.622,0.484l0.793,0.559l0.786-0.851c0.723-0.777,1.667-1.273,2.61-1.446
				c0.942-0.174,1.883-0.026,2.603,0.483C215.866,159.93,215.866,162.009,214.429,163.561z"/>
		</g>
		<g>
			<path style="fill:#FFFFFF;stroke:#263238;stroke-linecap:round;stroke-linejoin:round;stroke-miterlimit:10;" d="
				M233.508,214.585l-100.877,21.906c-2.676,0.581-4.852-0.803-4.852-3.094v-18.342c0-2.291,2.175-4.59,4.852-5.134l100.877-20.513
				c2.397-0.487,4.335,0.87,4.335,3.03v17.295C237.843,211.893,235.905,214.064,233.508,214.585z"/>
			<path style="fill:#FFFFFF;stroke:#263238;stroke-linecap:round;stroke-linejoin:round;stroke-miterlimit:10;" d="
				M152.663,218.764c0-4.586-4.313-7.416-9.66-6.316c-5.377,1.106-9.758,5.763-9.758,10.396c0,4.632,4.381,7.448,9.758,6.295
				C148.35,227.992,152.663,223.349,152.663,218.764z"/>
			
				<line style="fill:none;stroke:#263238;stroke-linecap:round;stroke-linejoin:round;stroke-miterlimit:10;" x1="162.225" y1="212.691" x2="204.096" y2="203.983"/>
			
				<line style="fill:none;stroke:#263238;stroke-linecap:round;stroke-linejoin:round;stroke-miterlimit:10;" x1="162.225" y1="216.363" x2="204.096" y2="207.574"/>
			
				<line style="fill:none;stroke:#263238;stroke-linecap:round;stroke-linejoin:round;stroke-miterlimit:10;" x1="162.225" y1="220.953" x2="224.592" y2="207.71"/>
		</g>
		<g>
			<path style="fill:#92E3A9;stroke:#263238;stroke-linecap:round;stroke-linejoin:round;stroke-miterlimit:10;" d="
				M241.873,192.944c0-4.763-4.27-7.763-9.564-6.696c-5.325,1.073-9.665,5.849-9.665,10.662c0,4.813,4.34,7.799,9.665,6.675
				C237.603,202.468,241.873,197.706,241.873,192.944z"/>
			<g>
				<path style="fill:#FFFFFF;stroke:#263238;stroke-linecap:round;stroke-linejoin:round;stroke-miterlimit:10;" d="
					M238.573,193.624c0-3.12-2.799-5.08-6.265-4.376c-3.479,0.706-6.308,3.828-6.308,6.969c0,3.141,2.83,5.095,6.308,4.367
					C235.774,199.859,238.573,196.744,238.573,193.624z"/>
				<path style="fill:none;stroke:#263238;stroke-linecap:round;stroke-linejoin:round;stroke-miterlimit:10;" d="M228.625,196.718
					c0.427,1.342,1.519,2.359,3.684,1.908c2.223-0.463,3.275-1.804,3.669-3.429L228.625,196.718z"/>
				<path style="fill:#263238;" d="M230.813,194.177c0,0.648-0.212,1.216-0.473,1.27c-0.262,0.054-0.474-0.427-0.474-1.075
					s0.212-1.217,0.474-1.27C230.601,193.048,230.813,193.529,230.813,194.177z"/>
				<path style="fill:#263238;" d="M234.355,193.448c0,0.646-0.211,1.214-0.472,1.268c-0.26,0.054-0.472-0.427-0.472-1.074
					c0-0.647,0.211-1.214,0.472-1.268C234.144,192.321,234.355,192.802,234.355,193.448z"/>
			</g>
		</g>
		<g>
			<path style="fill:#92E3A9;stroke:#263238;stroke-linecap:round;stroke-linejoin:round;stroke-miterlimit:10;" d="
				M219.001,233.695c0-4.822-4.378-7.764-9.807-6.564c-5.461,1.207-9.912,6.143-9.912,11.017s4.451,7.799,9.912,6.54
				C214.623,243.436,219.001,238.517,219.001,233.695z"/>
			<g>
				<path style="fill:#FFFFFF;stroke:#263238;stroke-linecap:round;stroke-linejoin:round;stroke-miterlimit:10;" d="
					M215.618,234.459c0-3.159-2.871-5.08-6.424-4.289c-3.567,0.794-6.469,4.02-6.469,7.201c0,3.181,2.902,5.096,6.469,4.279
					C212.748,240.836,215.618,237.618,215.618,234.459z"/>
				<path style="fill:none;stroke:#263238;stroke-linecap:round;stroke-linejoin:round;stroke-miterlimit:10;" d="M205.465,240.516
					c0.714-1.346,2.117-2.468,3.729-2.834c1.552-0.352,2.906,0.087,3.636,1.032"/>
				<path style="fill:#263238;" d="M207.66,235.195c0,0.656-0.217,1.236-0.486,1.297c-0.268,0.061-0.486-0.422-0.486-1.078
					c0-0.656,0.217-1.237,0.486-1.297C207.443,234.056,207.66,234.539,207.66,235.195z"/>
				<path style="fill:#263238;" d="M211.293,234.376c0,0.655-0.216,1.234-0.484,1.294c-0.267,0.06-0.484-0.422-0.484-1.076
					c0-0.655,0.217-1.234,0.484-1.294C211.077,233.24,211.293,233.722,211.293,234.376z"/>
			</g>
		</g>
	</g>
</g>
<g id="Character">
	<g>
		<path style="fill:#FFFFFF;stroke:#263238;stroke-linecap:round;stroke-linejoin:round;stroke-miterlimit:10;" d="M350.756,268.459
			c0,0-2.54-2.823-5.645-2.54c-3.105,0.282-3.387,0-1.694,7.903c1.694,7.903,4.798,14.96,6.492,14.96
			c1.693,0,2.822-1.411,2.822-1.411l2.54,5.363h60.967c0,0,9.032-15.806,7.903-23.427c-1.129-7.621-7.339-2.54-7.339-2.54
			L350.756,268.459z"/>
		<path style="fill:#263238;stroke:#263238;stroke-linecap:round;stroke-linejoin:round;stroke-miterlimit:10;" d="M361.482,283.983
			c0,0-6.774-3.952-9.879-10.726c-3.105-6.774-2.822-12.137-2.822-12.137s-7.056-9.032-1.411-23.145
			c5.645-14.113,9.314-17.5,11.572-16.935c2.258,0.564,2.258,0.564,2.258,0.564s7.339-16.089,18.629-16.089
			c11.29,0,26.532,8.185,34.153,16.653c7.621,8.468,11.572,22.016,9.879,24.838c-1.693,2.823-4.234,3.669-4.234,3.669
			s-0.564,14.96-5.363,21.451c-4.798,6.492-10.726,12.419-10.726,12.419l-40.645,1.411L361.482,283.983z"/>
		<g>
			<path style="fill:#FFFFFF;stroke:#263238;stroke-linecap:round;stroke-linejoin:round;stroke-miterlimit:10;" d="M267,317.325
				c0,0,2-7,1-12s-5.5-13.5-2.5-20s6.332-5.64,4.5-1.5c-1.194,2.698-0.5,7-0.5,7s4.5-6,6.5-6.5s5.5,0,5.5,0s1.5-2.5,3-2.5s5,0,5,0
				s5.5-6.5,8.5-5s9,8,7.5,11s-5.5-1.5-5.5-1.5l-2-2.5c0,0-2.5,5.5-3,9.5s0,6,0,6l2,1.5c0,0,6-2,9-3s6.5,2.5,4,4s-8.5,5-9.5,6.5
				s-6,3-6,3l-3.5,1l-7,13C284,325.325,272,313.325,267,317.325z"/>
			<path style="fill:none;stroke:#263238;stroke-linecap:round;stroke-linejoin:round;stroke-miterlimit:10;" d="M289.5,281.825
				c0,0-2.5,1.5-3.5,6"/>
			<path style="fill:none;stroke:#263238;stroke-linecap:round;stroke-linejoin:round;stroke-miterlimit:10;" d="M281.5,284.325
				c0,0-2,1.5-4,4.5"/>
		</g>
		<path style="fill:#92E3A9;stroke:#263238;stroke-linecap:round;stroke-linejoin:round;stroke-miterlimit:10;" d="M284,318.825
			c0,0-5-6.5-11-7s-9,1-10,3s-4,4-4,4s-15.5,10.5-23,18s-16,14-15.5,21s15.5,9,20.5,6.5s13.5-11.5,17-17.5S284,318.825,284,318.825z
			"/>
		<path style="fill:#92E3A9;stroke:#263238;stroke-linecap:round;stroke-linejoin:round;stroke-miterlimit:10;" d="M429.5,298.325
			c0,0-18-13.5-31.5-18.5s-30.5-2-40,3.5s-23,14-23,14L429.5,298.325z"/>
		<g>
			<path style="fill:#FFFFFF;stroke:#263238;stroke-linecap:round;stroke-linejoin:round;stroke-miterlimit:10;" d="M507.5,334.325
				c0,0-2-7-1-12s5.5-13.5,2.5-20s-6.6-5.511-4.5-1.5c1.816,3.469,0.5,7,0.5,7s-4.5-6-6.5-6.5s-5.5,0-5.5,0s-1.5-2.5-3-2.5s-5,0-5,0
				s-5.5-6.5-8.5-5s-9,8-7.5,11s5.5-1.5,5.5-1.5l2-2.5c0,0,2.5,5.5,3,9.5s0,6,0,6l-2,1.5c0,0-6-2-9-3s-6.5,2.5-4,4s8.5,5,9.5,6.5
				s6,3,6,3l3.5,1l7,13C490.5,342.325,502.5,330.325,507.5,334.325z"/>
			<path style="fill:#FFFFFF;stroke:#263238;stroke-linecap:round;stroke-linejoin:round;stroke-miterlimit:10;" d="M485,298.825
				c0,0,2.5,1.5,3.5,6"/>
			<path style="fill:#FFFFFF;stroke:#263238;stroke-linecap:round;stroke-linejoin:round;stroke-miterlimit:10;" d="M493,301.325
				c0,0,2,1.5,4,4.5"/>
		</g>
		<path style="fill:#92E3A9;stroke:#263238;stroke-linecap:round;stroke-linejoin:round;stroke-miterlimit:10;" d="M494,336.325
			c0,0,1-2.5,5.5-4.5s10,0,10,0l3,6.5c0,0-3,2.5,8.5,9.5s16,20.5,16,26.5s-16.5-8-26.5-16S494,336.325,494,336.325z"/>
		<g>
			<path style="fill:#92E3A9;stroke:#263238;stroke-linecap:round;stroke-linejoin:round;stroke-miterlimit:10;" d="M432.5,298.825
				c0,0-29.5-8-48-9s-44,5.5-47.5,6s-33,4.5-36,6s-55,41.5-55,41.5s-8,1.5-18,4.5s-12,11-12,11s3,23,10,26s13,0,19-2.5
				s51.5-18,51.5-18l6.5,37.5h147.5l9-39.5c0,0,52,40,59.5,40.5s17.5-4.5,21.5-12s-5.5-24-9-29s-13.5-10.5-21-15.5
				s-37.5-38.5-41.5-41.5S432.5,298.825,432.5,298.825z"/>
			<path style="opacity:0.2;" d="M460.528,329.873c0,0,15.472-19.873-3.733-20.017c-19.205-0.143-31.735,10.623-31.735,10.623
				s-46.618-10.623-69.912-10.623c-23.294,0,5.754,10.623,11.853,21.143s-27.461-10.521-41.384-12.654
				c-10.118-1.55-14.194,4.021-15.363,16.175l-17.997-11.908c0,0-40.256,41.387-45.256,43.387s-16-6-16,3s10,15.649,14,13.325
				C249,380,294,361,294,361l16,32l4.758,1.699C314.91,395.538,315,396,315,396l3.807,0.145L324,398l0.032-1.655L446,401l10-40
				c0,0,41,22,49,29s16,4,19-1S460.528,329.873,460.528,329.873z"/>
			<path style="fill:none;stroke:#263238;stroke-linecap:round;stroke-linejoin:round;stroke-miterlimit:10;" d="M399.731,317.907
				c1.82,0.963,3.296,1.792,4.269,2.418"/>
			<path style="fill:none;stroke:#263238;stroke-linecap:round;stroke-linejoin:round;stroke-miterlimit:10;" d="M364,300.825
				c0,0,20.56,9.346,32.666,15.496"/>
			<path style="fill:none;stroke:#263238;stroke-linecap:round;stroke-linejoin:round;stroke-miterlimit:10;" d="M389.5,310.325
				c0,0,14,6,20.5,11.5"/>
			<polyline style="fill:none;stroke:#263238;stroke-linecap:round;stroke-linejoin:round;stroke-miterlimit:10;" points="
				466.188,339.25 459.5,362.325 473.5,337.325 			"/>
			
				<line style="fill:none;stroke:#263238;stroke-linecap:round;stroke-linejoin:round;stroke-miterlimit:10;" x1="469.5" y1="327.825" x2="467.839" y2="333.555"/>
			<polyline style="fill:none;stroke:#263238;stroke-linecap:round;stroke-linejoin:round;stroke-miterlimit:10;" points="
				290.64,339.421 296.5,364.325 282.5,342.825 			"/>
			
				<line style="fill:none;stroke:#263238;stroke-linecap:round;stroke-linejoin:round;stroke-miterlimit:10;" x1="288.5" y1="330.325" x2="289.62" y2="335.086"/>
			<path style="fill:none;stroke:#263238;stroke-linecap:round;stroke-linejoin:round;stroke-miterlimit:10;" d="M229.754,351.68
				c3.865-3.136,9.398-6.643,16.246-8.355"/>
			<path style="fill:none;stroke:#263238;stroke-linecap:round;stroke-linejoin:round;stroke-miterlimit:10;" d="M223.5,357.825
				c0,0,1.071-1.386,3.08-3.331"/>
		</g>
		<g>
			<path style="fill:#FFFFFF;stroke:#263238;stroke-linecap:round;stroke-linejoin:round;stroke-miterlimit:10;" d="
				M303.237,453.325l-11.926-59.91c-0.679-3.41,1.93-6.59,5.408-6.59H459.78c3.477,0,6.087,3.18,5.408,6.59l-11.926,59.91"/>
			<polyline style="fill:#263238;stroke:#263238;stroke-linecap:round;stroke-linejoin:round;stroke-miterlimit:10;" points="
				309.612,453.325 297.5,386.825 459,386.825 446.887,453.325 			"/>
		</g>
	</g>
</g>
</svg>
